<?xml version="1.0" encoding="utf-8"?>
<!-- Generator: Adobe Illustrator 19.0.0, SVG Export Plug-In . SVG Version: 6.00 Build 0)  -->
<svg version="1.1" id="Layer_1" xmlns="http://www.w3.org/2000/svg" xmlns:xlink="http://www.w3.org/1999/xlink" x="0px" y="0px"
	 viewBox="0 0 384.9 333.7" style="enable-background:new 0 0 384.9 333.7;" xml:space="preserve">
<style type="text/css">
	.st0{fill:#FFFFFF;}
	.st1{fill:none;stroke:#6A005F;stroke-width:4;stroke-miterlimit:10;}
	.st2{fill:#6A005F;}
	.st3{fill:none;stroke:#6A005F;stroke-width:2;stroke-linecap:round;stroke-linejoin:round;stroke-miterlimit:10;}
	.st4{fill:none;stroke:#FFFFFF;stroke-width:2;stroke-linecap:round;stroke-linejoin:round;stroke-miterlimit:10;}
	.st5{fill:none;stroke:#6A005F;stroke-width:2;stroke-miterlimit:10;}
	.st6{display:none;}
	.st7{display:inline;fill:none;stroke:#6A005F;stroke-width:2;stroke-miterlimit:10;}
	.st8{fill:none;}
	.st9{fill:none;stroke:#6A005F;stroke-linecap:round;stroke-linejoin:round;}
	.st10{fill:#024792;}
	.st11{fill:#E83827;}
	.st12{fill:#DA3A29;}
	.st13{fill:none;stroke:#60235A;stroke-width:0.25;stroke-miterlimit:10;}
	.st14{fill:none;stroke:#E83827;stroke-miterlimit:10;}
</style>
<g id="Circle">
	<g id="XMLID_3_">
		<circle id="XMLID_5_" class="st0" cx="195.6" cy="169.3" r="140.4"/>
	</g>
	<g id="XMLID_4_">
		<circle id="XMLID_13_" class="st1" cx="195.6" cy="169.3" r="140.4"/>
	</g>
</g>
<g id="Arc_de_Triomphe">
	<g>
		<polygon class="st2" points="291.3,237 291.3,271.8 238.5,271.8 238.6,237 		"/>
		<path class="st2" d="M291.3,169.2V237h-52.8l0-67.7c0-4.7-0.8-9.3-2.2-13.6l0.2-0.1h53.8C291,160.1,291.3,164.6,291.3,169.2z"/>
		<path class="st2" d="M290.4,155.6h-53.8l-0.2,0.1c-5.7-17.1-21.8-29.4-40.8-29.4c-23.8,0-42.9,19.2-42.9,43V237H99.8v-67.7
			c0-7.4,0.8-14.6,2.4-21.5h41.4v-26.4h-31c5.6-9.7,12.9-18.4,21.5-25.5l0,0l61.5-0.2h0l61.4,0.2l0,0c8.6,7.2,15.9,15.8,21.5,25.5
			h-31v26.4h41.4C289.5,150.3,290,152.9,290.4,155.6z M238.5,152.8c0,0.3,0-31.4,0-31.4h-40.7C218.2,122.4,237.2,139.2,238.5,152.8z
			 M193.3,121.3h-40.7c0,0,0,31.8,0,31.4C154,139.2,173,122.4,193.3,121.3z"/>
		<path class="st2" d="M288.9,147.7h-41.4v-26.4h31C283.2,129.5,286.8,138.3,288.9,147.7z"/>
		<path class="st2" d="M257.1,95.8L257.1,95.8l-61.5-0.2h0l-61.5,0.2l0,0c16.6-13.9,38.1-22.3,61.5-22.3S240.4,81.9,257.1,95.8z"/>
		<path class="st2" d="M238.5,121.3c0,0,0,31.8,0,31.4c-1.4-13.5-20.3-30.4-40.7-31.4H238.5z"/>
		<path class="st2" d="M152.7,121.3h40.7c-20.3,1-39.3,17.9-40.7,31.4C152.6,153.1,152.7,121.3,152.7,121.3z"/>
		<rect x="99.8" y="237" class="st2" width="52.8" height="34.9"/>
		<path class="st2" d="M143.7,121.3v26.4h-41.4c2.2-9.4,5.7-18.3,10.4-26.4H143.7z"/>
	</g>
	<g>
		<path class="st3" d="M238.6,237l0-67.7c0-4.7-0.8-9.3-2.2-13.6c-5.7-17.1-21.8-29.4-40.8-29.4c-23.8,0-42.9,19.2-42.9,43V237v34.9
			H99.8V237v-67.7c0-7.4,0.8-14.6,2.4-21.5c2.2-9.4,5.7-18.3,10.4-26.4c5.6-9.7,12.9-18.4,21.5-25.5c16.6-13.9,38.1-22.3,61.5-22.3
			s44.9,8.4,61.5,22.3c8.6,7.2,15.9,15.8,21.5,25.5c4.7,8.1,8.2,17,10.4,26.4c0.6,2.6,1.1,5.2,1.5,7.9c0.6,4.5,1,9,1,13.6V237v34.9
			h-52.8L238.6,237z"/>
		<line class="st4" x1="99.8" y1="237" x2="152.7" y2="237"/>
		<path class="st4" d="M152.7,121.3h40.7c-20.3,1-39.3,17.9-40.7,31.4C152.6,153.1,152.7,121.3,152.7,121.3z"/>
		<polyline class="st4" points="112.7,121.3 143.7,121.3 143.7,147.7 102.3,147.7 		"/>
		<polyline class="st4" points="290.4,155.6 290.4,155.6 236.6,155.6 		"/>
		<path class="st4" d="M197.9,121.3c20.3,1,39.3,17.9,40.7,31.4c0,0.3,0-31.4,0-31.4H197.9z"/>
		<polyline class="st4" points="278.5,121.3 247.5,121.3 247.5,147.7 288.9,147.7 		"/>
		<polyline class="st4" points="257.1,95.8 195.6,95.6 195.6,95.6 134.1,95.8 		"/>
		<polyline class="st4" points="238.5,237 238.6,237 291.3,237 		"/>
	</g>
</g>
<g id="XMLID_10_">
	<path id="XMLID_25_" class="st0" d="M100.8,154.5c0,0,0.8,0,2.3,0c1.5,0,3.6,0.1,6.1,0.1c5,0,11.8,0,18.5,0.1
		c3.4,0,6.7-0.1,9.9-0.1c3.2,0,6.1-0.1,8.6-0.1c2.5,0,4.6-0.1,6.1-0.1c1.5,0,2.3-0.1,2.3-0.1c0.6,0,1.2,0.5,1.2,1.1
		c0,0.6-0.5,1.2-1.1,1.2c0,0,0,0-0.1,0l0,0c0,0-0.8,0-2.3,0c-1.5,0-3.6-0.1-6.1-0.1c-2.5,0-5.5,0-8.6,0c-3.2,0-6.5-0.1-9.9,0
		c-6.7,0.1-13.4,0.1-18.5,0.2c-2.5,0-4.6,0.1-6.1,0.1c-1.5,0-2.3,0.1-2.3,0.1c-0.6,0-1.2-0.5-1.2-1.1
		C99.6,155.1,100.1,154.6,100.8,154.5C100.8,154.5,100.8,154.5,100.8,154.5L100.8,154.5z"/>
</g>
<g id="Nanjing_Right">
	<polygon id="XMLID_59_" class="st5" points="267.1,168.8 261.4,180.1 273,180.1 	"/>
	<path id="XMLID_58_" class="st5" d="M263.3,183.5c-12.8-0.9-12.8,4.6-12.8,4.6"/>
	<path id="XMLID_57_" class="st5" d="M263.3,193.2c-12.8-0.9-12.8,4.6-12.8,4.6"/>
	<path id="XMLID_56_" class="st5" d="M263.3,188.5c-12.8-0.9-12.8,4.6-12.8,4.6"/>
	<line id="XMLID_55_" class="st5" x1="261.4" y1="185.8" x2="273.4" y2="185.8"/>
	<line id="XMLID_54_" class="st5" x1="267.2" y1="181.2" x2="267.2" y2="193.1"/>
	<path id="XMLID_52_" class="st5" d="M271.3,183.7c12.8-0.9,12.8,4.6,12.8,4.6"/>
	<path id="XMLID_51_" class="st5" d="M271.3,193.4c12.8-0.9,12.8,4.6,12.8,4.6"/>
	<path id="XMLID_50_" class="st5" d="M271.3,188.7c12.8-0.9,12.8,4.6,12.8,4.6"/>
	<path id="XMLID_48_" class="st5" d="M286.7,202.7c-14.9-6-26.1-5.7-39.1,0"/>
	<path id="XMLID_47_" class="st5" d="M256.2,206.6c7.9-6.1,11.7-6.3,21.2,0C271.4,212.5,261.6,212.7,256.2,206.6z"/>
	<path id="XMLID_46_" class="st5" d="M253.3,215.4c8-5.8,19-5.7,26.6,0"/>
	<path id="XMLID_45_" class="st5" d="M266.6,211.1v9.4c-1.9,1.8-3.6,0-3.6,0"/>
	<line id="XMLID_53_" class="st5" x1="250.5" y1="188.1" x2="250.5" y2="196.6"/>
	<line id="XMLID_6_" class="st5" x1="284.1" y1="188.2" x2="284.1" y2="198"/>
</g>
<g id="Nanjing_Left" class="st6">
	<polygon id="XMLID_44_" class="st7" points="125.4,167.1 119.7,178.5 131.3,178.5 	"/>
	<path id="XMLID_60_" class="st7" d="M121.6,181.8c-12.8-0.9-12.8,4.6-12.8,4.6"/>
	<path id="XMLID_61_" class="st7" d="M121.6,191.6c-12.8-0.9-12.8,4.6-12.8,4.6"/>
	<path id="XMLID_62_" class="st7" d="M121.6,186.9c-12.8-0.9-12.8,4.6-12.8,4.6"/>
	<line id="XMLID_67_" class="st7" x1="119.7" y1="184.1" x2="131.7" y2="184.1"/>
	<line id="XMLID_68_" class="st7" x1="125.5" y1="179.5" x2="125.5" y2="191.5"/>
	<path id="XMLID_70_" class="st7" d="M129.6,182c12.8-0.9,12.8,4.6,12.8,4.6"/>
	<path id="XMLID_71_" class="st7" d="M129.6,191.8c12.8-0.9,12.8,4.6,12.8,4.6"/>
	<path id="XMLID_72_" class="st7" d="M129.6,187.1c12.8-0.9,12.8,4.6,12.8,4.6"/>
	<path id="XMLID_73_" class="st7" d="M145,201c-14.9-6-26.1-5.7-39.1,0"/>
	<path id="XMLID_74_" class="st7" d="M114.5,205c7.9-6.1,11.7-6.3,21.2,0C129.7,210.8,119.9,211.1,114.5,205z"/>
	<path id="XMLID_75_" class="st7" d="M111.6,213.7c8-5.8,19-5.7,26.6,0"/>
	<path id="XMLID_76_" class="st7" d="M124.9,209.5v9.4c-1.9,1.8-3.6,0-3.6,0"/>
	<line id="XMLID_77_" class="st7" x1="108.8" y1="186.4" x2="108.8" y2="195"/>
	<line id="XMLID_78_" class="st7" x1="142.4" y1="185.8" x2="142.4" y2="195.6"/>
</g>
<path id="XMLID_x5F_14_x5F_" class="st8" d="M92.7,216.2c-6.1-13.9-9.4-29.2-9.4-45.3c0-62.3,50.2-112.7,112.2-112.7
	s112.2,50.5,112.2,112.7c0,16.1-3.4,31.5-9.4,45.3"/>
<text id="XMLID_1_"><textPath  xlink:href="#XMLID_x5F_14_x5F_" startOffset="0.512%">
<tspan  class="st2" style="font-family:'DroidSerif-Bold'; font-size:18px;">Association des Anciens Elèves de NJU en France</tspan></textPath>
</text>
<g id="XMLID_115_">
	<path id="XMLID_118_" class="st9" d="M196.6,116.1c2.7,57.3,13.7,60.1,13.7,60.1H202C197,143.2,196.6,116.1,196.6,116.1
		L196.6,116.1z"/>
	<path id="XMLID_117_" class="st9" d="M194.6,116.4c-2.7,57.3-13.7,60.1-13.7,60.1h8.2C194.2,143.5,194.6,116.4,194.6,116.4
		L194.6,116.4z"/>
	<path id="XMLID_129_" class="st9" d="M189.2,176.4c-8,39.8-20.4,51.5-23.6,55.2h10.7l0.1-0.2C182.5,213.6,186.5,194.1,189.2,176.4z
		"/>
	<path id="XMLID_130_" class="st9" d="M214.9,231.5h10.7c0,0-15.7-18-23.1-53c-0.1-0.7-0.3-1.4-0.4-2.1h0.1c0.1,0.7,0.2,1.4,0.3,2.1
		C205.2,195.7,209.1,214.4,214.9,231.5z"/>
</g>
<g id="Tour_Eiffel">
	<g id="XMLID_28_">
		<path id="XMLID_37_" class="st10" d="M242.6,285.1c-5.7-0.3-12.2-1.7-21.2-4.8c-7.4-2.3-7.8-1.9-7.8-1.8
			c-1.6-11.4-7.1-19.7-18-20.5c-10.9,0.7-15.5,8.4-17.9,20.5c0-0.1-0.6-0.5-7.8,1.8c-9.1,3.1-15.6,4.4-21.2,4.8
			c10.7-11.4,22.7-35.7,28.8-53.5h36.4C219.9,249.4,231.9,273.7,242.6,285.1z"/>
		<path id="XMLID_36_" class="st0" d="M213.8,231.5h-36.4c6-17.9,10.1-37.3,12.8-55H201C203.7,194.2,207.8,213.7,213.8,231.5z"/>
		<path id="XMLID_35_" class="st11" d="M201,176.5h-10.8c3.1-20.4,4.4-38.6,5-49.4h0.8C196.6,137.9,197.9,156.1,201,176.5z"/>
		<path id="XMLID_34_" class="st12" d="M198.6,122.4v4.7H196c-0.1-1.8-0.2-3.3-0.2-4.7H198.6z"/>
		<path id="XMLID_33_" class="st12" d="M195.7,122.4h0.1c0.1,1.4,0.1,2.9,0.2,4.7h-0.8c0.1-1.8,0.2-3.3,0.2-4.7H195.7L195.7,122.4z"
			/>
		<path id="XMLID_32_" class="st11" d="M195.8,122.4h-0.1v-3.5C195.7,119.8,195.8,121,195.8,122.4z"/>
		<path id="XMLID_30_" class="st12" d="M192.4,122.4h3c-0.1,1.4-0.1,2.9-0.2,4.7h-2.8V122.4z"/>
	</g>
	<g id="XMLID_29_">
		<path id="XMLID_96_" class="st13" d="M177.7,278.5C177.7,278.5,177.7,278.5,177.7,278.5L177.7,278.5c0-0.2-0.6-0.5-7.8,1.8
			c-9.1,3.1-15.6,4.4-21.2,4.8c10.7-11.4,22.7-35.7,28.8-53.5c6-17.9,10.1-37.3,12.8-55c3.1-20.4,4.4-38.6,5-49.4"/>
		<path id="XMLID_95_" class="st13" d="M213.6,278.5C213.6,278.5,213.6,278.5,213.6,278.5c-1.6-11.4-7.1-19.8-18-20.5
			c-10.9,0.7-15.5,8.4-17.9,20.5"/>
		<path id="XMLID_94_" class="st13" d="M196,127.1c0.6,10.9,1.9,29,5,49.4c2.7,17.7,6.7,37.2,12.8,55s18.1,42.1,28.8,53.5"/>
		<path id="XMLID_81_" class="st13" d="M213.6,278.5C213.6,278.5,213.6,278.5,213.6,278.5c0-0.1,0.4-0.6,7.8,1.8
			c9.1,3.1,15.6,4.4,21.2,4.8"/>
		<line id="XMLID_49_" class="st13" x1="190.2" y1="176.5" x2="201" y2="176.5"/>
		<line id="XMLID_42_" class="st13" x1="213.8" y1="231.5" x2="177.4" y2="231.5"/>
		<polyline id="XMLID_39_" class="st14" points="195.7,122.7 195.7,122.4 195.7,118.9 195.7,111.1 		"/>
		<polygon id="XMLID_38_" class="st14" points="195.4,122.4 192.4,122.4 192.4,127.1 195.2,127.1 196,127.1 198.6,127.1 
			198.6,122.4 195.8,122.4 195.7,122.4 195.6,122.4 		"/>
	</g>
</g>
<g id="NJU">
	<path id="path7" class="st0" d="M128.1,174.7c7.4,0.8,12.9,4.7,16.3,10.1c0.4,0.7,1.2,1.9,1.1,2.4c-0.1,0.6-0.5,1.1-1.1,1
		c-0.7,0-0.9-1-1.5-1.9c-2.8-4.9-7.4-8.3-13.9-9.5c0.3,1.5,1,3,1.6,4.5c0.5,1.5,1.1,3.1,1.7,4.6c0.3,0.3,0,0.6,0,1
		c1.2-0.1,2.5,0,2.3,1.3c-0.3,1.7-5.3,0.4-7.2,0.8c-0.2,1.3,0,3-0.1,4.5c1,0.6,5.9-0.5,6.9,0.2c0.3,0.2,0.4,0.8,0.4,1.1
		c-0.3,1.8-5.2,0.3-7.2,0.8c-0.3,1.5,0.4,3.7-1.1,3.8c-1.5,0.1-1.1-1.9-1.1-3.7c-1.8-0.7-6.9,1-7.3-0.8c-0.5-2.5,5.4-0.7,7.2-1.4
		c0.2-1.2,0.2-3.1,0-4.4c-1.6-0.6-6.8,0.9-7.2-0.8c-0.3-1.3,1-1.5,2.2-1.4c0.3-0.2-0.1-0.5,0-0.9c1.2-3,2.2-6.2,3.4-9.1
		c-7.9,1.1-12.9,5.9-15.4,12.6c0.9,0,2.2-0.5,3.9-0.8c1.8-0.3,5.5-1.1,4.4,1.4c-1.5,0.5-3.2,0.4-4.7,0.8c-1.5,0.3-2.9,0.8-4.1,1.3
		c-0.2,0.5-0.3,1.1-0.4,1.8c1.3-0.2,2.7-0.8,4.5-1.1c1.3-0.2,5.1-1.1,4.7,0.9c-0.2,0.9-1.3,0.8-2.1,0.8c-2.5,0.2-5.5,1-7.1,1.8
		c-0.1,0.3,0,1.1,0.1,1.5c1.5-0.4,2.6-0.7,4.5-1c1.2-0.2,4.1-1,4.3,0.4c0.4,1.9-3,1.4-4.6,1.7c-1.8,0.3-2.8,0.8-3.9,1.2
		c0.4,0.9,0.4,2.1-0.5,2.2c-1.8,0.4-2-3.9-2.1-5.7c-0.1-2.7,0.3-5.1,0.9-6.9c2.4-8.3,8.9-13.7,18.4-15.1c0.7-1,0.7-3,2-2.9
		C127.5,171.8,127.4,173.8,128.1,174.7z M127.5,179c-0.3-0.8-0.6-2.5-1.5-2.4c-1.6,3.2-2.6,6.9-4,10.4c0.8,0,2.3,0,3,0
		c-0.6-3.1,2.9-3.3,2.2,0c0.8,0,2.3,0,3.1,0C129.5,184.7,128.4,181.6,127.5,179z"/>
	<path id="path15" class="st0" d="M130.3,215.9c-2-2.7,4.5-2.4,5.3-3.8c-0.9-0.5-2.2-0.7-3.4-0.8c-1.2-0.2-2.5-0.3-3.7-0.3
		c0.1,1.8,0.9,5-1.1,5.5c-1.4,0.4-5.7,0-5.9-1c-0.4-2.3,3.3-0.8,4.9-1c0.4-1,0.1-2.6-0.3-3.5c-3.3-0.3-6.5,0.4-9.2,1
		c0.8,1.3,3.2,1,3.4,2.2c0.5,2.7-4.3,0-5-0.5c-2.6-1.5-4.5-3.2-6.4-5.7c-0.7-1-2.2-2.8-2.1-3.8c0.1-1,2.3-1.6,3.7-1.9
		c8.3-2.2,17.8-3.1,27-1.2c1.2,0.3,2.7,0.7,4.1,1.2c1.2,0.4,3.5,0.9,3.6,1.7c0.2,1.1-1.9,3.8-2.4,4.5c-2.1,2.8-4.3,4.6-7.5,6.1
		C134,215.2,132.3,216,130.3,215.9z M109.6,204.8c1.2,2.4,3,4.2,5,5.8c1.3-0.5,2.8-0.9,4.3-1.1c-0.6-0.6-1.4-0.9-2.2-1.6
		c-0.6-0.5-1.8-1.1-1.8-2.1c0.1-1,2.2-1.5,3.7-1.8c4.8-1.1,10.5-0.9,15.1,0.1c1.4,0.3,3.9,0.7,3.9,1.9c0,0.6-1.1,1.6-1.7,2
		c-0.8,0.7-1.7,0.7-2.2,1.6c1.7,0.1,3,0.7,4.4,1.1c2.1-1.5,3.7-3.4,4.8-5.8C134.1,201.1,118.5,201.4,109.6,204.8z M118.3,206.4
		c3.6,3.1,12.3,3.1,15.9,0C129.9,205,122.5,205,118.3,206.4z"/>
	<path id="path13" class="st0" d="M144.3,189.8c0.6-0.1,0.7-0.7,1.5-0.6c1.2,0.1,1.4,3.2,1.6,4.8c0.2,2.7,0,10.1-2.8,7.6
		c-0.1-0.6,0-1,0.2-1.4c-1.3-0.8-3.9-1.3-6.2-1.6c-1.1-0.1-2.8,0.1-2.3-1.5c0.4-1.2,3.2-0.4,4.4-0.3c1.8,0.3,2.9,0.6,4.3,1
		c0.3-0.2,0.1-0.9,0.3-1.4c-1.1-0.8-4.7-1.8-7.1-1.9c-1.2-0.1-2.3,0.1-2.3-1.1c0-0.5,0.4-0.7,0.8-1c3.3,0.1,6,0.7,8.5,1.6
		c0.7-2.3-2.4-2.6-4.1-3c-1.7-0.4-3.4-0.5-4.8-0.6c-0.7-0.4-0.7-1.9,0.5-1.9C138.9,188.4,142.9,189.2,144.3,189.8z"/>
</g>
<g id="NJU_1_">
	<path id="path7_1_" class="st0" d="M266.8,175.7c7.4,0.8,12.9,4.7,16.3,10.1c0.4,0.7,1.2,1.9,1.1,2.4c-0.1,0.6-0.5,1.1-1.1,1
		c-0.7,0-0.9-1-1.5-1.9c-2.8-4.9-7.4-8.3-13.9-9.5c0.3,1.5,1,3,1.6,4.5c0.5,1.5,1.1,3.1,1.7,4.6c0.3,0.3,0,0.6,0,1
		c1.2-0.1,2.5,0,2.3,1.3c-0.3,1.7-5.3,0.4-7.2,0.8c-0.2,1.3,0,3-0.1,4.5c1,0.6,5.9-0.5,6.9,0.2c0.3,0.2,0.4,0.8,0.4,1.1
		c-0.3,1.8-5.2,0.3-7.2,0.8c-0.3,1.5,0.4,3.7-1.1,3.8c-1.5,0.1-1.1-1.9-1.1-3.7c-1.8-0.7-6.9,1-7.3-0.8c-0.5-2.5,5.4-0.7,7.2-1.4
		c0.2-1.2,0.2-3.1,0-4.4c-1.6-0.6-6.8,0.9-7.2-0.8c-0.3-1.3,1-1.5,2.2-1.4c0.3-0.2-0.1-0.5,0-0.9c1.2-3,2.2-6.2,3.4-9.1
		c-7.9,1.1-12.9,5.9-15.4,12.6c0.9,0,2.2-0.5,3.9-0.8c1.8-0.3,5.5-1.1,4.4,1.4c-1.5,0.5-3.2,0.4-4.7,0.8c-1.5,0.3-2.9,0.8-4.1,1.3
		c-0.2,0.5-0.3,1.1-0.4,1.8c1.3-0.2,2.7-0.8,4.5-1.1c1.3-0.2,5.1-1.1,4.7,0.9c-0.2,0.9-1.3,0.8-2.1,0.8c-2.5,0.2-5.5,1-7.1,1.8
		c-0.1,0.3,0,1.1,0.1,1.5c1.5-0.4,2.6-0.7,4.5-1c1.2-0.2,4.1-1,4.3,0.4c0.4,1.9-3,1.4-4.6,1.7c-1.8,0.3-2.8,0.8-3.9,1.2
		c0.4,0.9,0.4,2.1-0.5,2.2c-1.8,0.4-2-3.9-2.1-5.7c-0.1-2.7,0.3-5.1,0.9-6.9c2.4-8.3,8.9-13.7,18.4-15.1c0.7-1,0.7-3,2-2.9
		C266.2,172.9,266.1,174.8,266.8,175.7z M266.2,180c-0.3-0.8-0.6-2.5-1.5-2.4c-1.6,3.2-2.6,6.9-4,10.4c0.8,0,2.3,0,3,0
		c-0.6-3.1,2.9-3.3,2.2,0c0.8,0,2.3,0,3.1,0C268.2,185.7,267.1,182.6,266.2,180z"/>
	<path id="path15_1_" class="st0" d="M269,217c-2-2.7,4.5-2.4,5.3-3.8c-0.9-0.5-2.2-0.7-3.4-0.8c-1.2-0.2-2.5-0.3-3.7-0.3
		c0.1,1.8,0.9,5-1.1,5.5c-1.4,0.4-5.7,0-5.9-1c-0.4-2.3,3.3-0.8,4.9-1c0.4-1,0.1-2.6-0.3-3.5c-3.3-0.3-6.5,0.4-9.2,1
		c0.8,1.3,3.2,1,3.4,2.2c0.5,2.7-4.3,0-5-0.5c-2.6-1.5-4.5-3.2-6.4-5.7c-0.7-1-2.2-2.8-2.1-3.8c0.1-1,2.3-1.6,3.7-1.9
		c8.3-2.2,17.8-3.1,27-1.2c1.2,0.3,2.7,0.7,4.1,1.2c1.2,0.4,3.5,0.9,3.6,1.7c0.2,1.1-1.9,3.8-2.4,4.5c-2.1,2.8-4.3,4.6-7.5,6.1
		C272.7,216.2,271,217,269,217z M248.3,205.8c1.2,2.4,3,4.2,5,5.8c1.3-0.5,2.8-0.9,4.3-1.1c-0.6-0.6-1.4-0.9-2.2-1.6
		c-0.6-0.5-1.8-1.1-1.8-2.1c0.1-1,2.2-1.5,3.7-1.8c4.8-1.1,10.5-0.9,15.1,0.1c1.4,0.3,3.9,0.7,3.9,1.9c0,0.6-1.1,1.6-1.7,2
		c-0.8,0.7-1.7,0.7-2.2,1.6c1.7,0.1,3,0.7,4.4,1.1c2.1-1.5,3.7-3.4,4.8-5.8C272.8,202.1,257.2,202.4,248.3,205.8z M257,207.4
		c3.6,3.1,12.3,3.1,15.9,0C268.6,206,261.2,206,257,207.4z"/>
	<path id="path13_1_" class="st0" d="M283,190.8c0.6-0.1,0.7-0.7,1.5-0.6c1.2,0.1,1.4,3.2,1.6,4.8c0.2,2.7,0,10.1-2.8,7.6
		c-0.1-0.6,0-1,0.2-1.4c-1.3-0.8-3.9-1.3-6.2-1.6c-1.1-0.1-2.8,0.1-2.3-1.5c0.4-1.2,3.2-0.4,4.4-0.3c1.8,0.3,2.9,0.6,4.3,1
		c0.3-0.2,0.1-0.9,0.3-1.4c-1.1-0.8-4.7-1.8-7.1-1.9c-1.2-0.1-2.3,0.1-2.3-1.1c0-0.5,0.4-0.7,0.8-1c3.3,0.1,6,0.7,8.5,1.6
		c0.7-2.3-2.4-2.6-4.1-3c-1.7-0.4-3.4-0.5-4.8-0.6c-0.7-0.4-0.7-1.9,0.5-1.9C277.6,189.4,281.6,190.2,283,190.8z"/>
</g>
<path id="livre" class="st2" d="M203.8,298.2l0.4,3.7h-16.1l0.5-3.7H138l8.9-7.9c5.3-0.3,13.1-1.5,21.9-4.8
	c17.2-6.4,27.6,2.4,27.6,2.4c8.2-6.9,18.5-5.5,28.1-1.9c9,3.3,20.6,4.1,20.6,4.1l8.1,8.1L203.8,298.2L203.8,298.2z"/>
</svg>
